<?xml version="1.0" encoding="UTF-8" standalone="no"?>
<svg
   xmlns:dc="http://purl.org/dc/elements/1.1/"
   xmlns:cc="http://creativecommons.org/ns#"
   xmlns:rdf="http://www.w3.org/1999/02/22-rdf-syntax-ns#"
   xmlns:svg="http://www.w3.org/2000/svg"
   xmlns="http://www.w3.org/2000/svg"
   xmlns:sodipodi="http://sodipodi.sourceforge.net/DTD/sodipodi-0.dtd"
   xmlns:inkscape="http://www.inkscape.org/namespaces/inkscape"
   inkscape:version="1.0beta1 (fe3e306, 2019-09-17)"
   sodipodi:docname="undraw_online_calendar_kvu2.svg"
   version="1.1"
   viewBox="0 0 551 383.47985"
   height="383.47986"
   width="551"
   data-name="Layer 1"
   id="f2f1e99e-1651-46a6-b45f-af903ca31f8b">
  <metadata
     id="metadata997">
    <rdf:RDF>
      <cc:Work
         rdf:about="">
        <dc:format>image/svg+xml</dc:format>
        <dc:type
           rdf:resource="http://purl.org/dc/dcmitype/StillImage" />
        <dc:title>online_calendar</dc:title>
      </cc:Work>
    </rdf:RDF>
  </metadata>
  <defs
     id="defs995" />
  <sodipodi:namedview
     inkscape:current-layer="f2f1e99e-1651-46a6-b45f-af903ca31f8b"
     inkscape:window-maximized="0"
     inkscape:window-y="1267"
     inkscape:window-x="96"
     inkscape:cy="424.68955"
     inkscape:cx="0.75242366"
     inkscape:zoom="0.49497475"
     fit-margin-bottom="0"
     fit-margin-right="0"
     fit-margin-left="0"
     fit-margin-top="0"
     showgrid="false"
     id="namedview993"
     inkscape:window-height="1030"
     inkscape:window-width="1745"
     inkscape:pageshadow="2"
     inkscape:pageopacity="0"
     guidetolerance="10"
     gridtolerance="10"
     objecttolerance="10"
     borderopacity="1"
     inkscape:document-rotation="0"
     bordercolor="#666666"
     pagecolor="#ffffff" />
  <title
     id="title916">online_calendar</title>
  <rect
     id="rect946"
     fill="#e6e6e6"
     height="343.11356"
     width="551"
     y="40.366299"
     x="0" />
  <rect
     id="rect948"
     fill="#fff"
     height="65.595238"
     width="100.91575"
     y="106.46612"
     x="36.948944" />
  <rect
     id="rect950"
     fill="#fff"
     height="65.595238"
     width="100.91575"
     y="106.46612"
     x="162.34439" />
  <rect
     id="rect952"
     fill="#fff"
     height="65.595238"
     width="100.91575"
     y="106.46612"
     x="287.73987" />
  <rect
     id="rect954"
     fill="#fff"
     height="65.595238"
     width="100.91575"
     y="106.46612"
     x="413.13531" />
  <rect
     id="rect956"
     fill="#fff"
     height="65.595238"
     width="100.91575"
     y="199.30861"
     x="36.948944" />
  <rect
     id="rect958"
     fill="#fff"
     height="65.595238"
     width="100.91575"
     y="199.30861"
     x="162.34439" />
  <rect
     id="rect960"
     fill="#fff"
     height="65.595238"
     width="100.91575"
     y="199.30861"
     x="287.73987" />
  <rect
     id="rect962"
     fill="#fff"
     height="65.595238"
     width="100.91575"
     y="199.30861"
     x="413.13531" />
  <rect
     id="rect964"
     fill="#fff"
     height="65.595238"
     width="100.91575"
     y="292.15109"
     x="36.948944" />
  <rect
     id="rect966"
     fill="#fff"
     height="65.595238"
     width="100.91575"
     y="292.15109"
     x="162.34439" />
  <rect
     id="rect968"
     fill="#fff"
     height="65.595238"
     width="100.91575"
     y="292.15109"
     x="287.73987" />
  <rect
     id="rect970"
     fill="#fff"
     height="65.595238"
     width="100.91575"
     y="292.15109"
     x="413.13531" />
  <circle
     id="circle972"
     fill="#fff"
     r="15.13736"
     cy="65.595238"
     cx="144.30951" />
  <circle
     id="circle974"
     fill="#fff"
     r="15.13736"
     cy="65.595238"
     cx="394.58057" />
  <rect
     y="0"
     id="rect976"
     fill="#e6e6e6"
     height="69.631866"
     width="12.10989"
     x="138.25458" />
  <rect
     y="0"
     id="rect978"
     fill="#e6e6e6"
     height="69.631866"
     width="12.10989"
     x="388.52563" />
  <path
     inkscape:connector-curvature="0"
     id="path980"
     fill="#dd042b"
     d="m 486.41392,139.26374 a 22.75657,22.75657 0 1 1 -3.52684,-12.19042 22.81841,22.81841 0 0 1 3.52684,12.19042 z" />
  <path
     inkscape:connector-curvature="0"
     id="path982"
     fill="#fff"
     d="m 482.88708,127.07332 -22.46389,22.45974 c -1.41187,-2.1858 -9.27766,-12.34393 -9.27766,-12.34393 a 31.82988,31.82988 0 0 1 3.2198,-2.84223 l 6.52257,8.69677 19.36856,-19.36856 a 22.72614,22.72614 0 0 1 2.63062,3.39821 z" />
  <path
     inkscape:connector-curvature="0"
     id="path984"
     fill="#dd042b"
     d="m 235.623,232.10623 a 22.75657,22.75657 0 1 1 -3.52684,-12.19042 22.81841,22.81841 0 0 1 3.52684,12.19042 z" />
  <path
     inkscape:connector-curvature="0"
     id="path986"
     fill="#fff"
     d="m 232.09615,219.91581 -22.46389,22.45974 c -1.41187,-2.1858 -9.27766,-12.34393 -9.27766,-12.34393 a 31.82988,31.82988 0 0 1 3.2198,-2.84223 l 6.52257,8.69678 19.36856,-19.36857 a 22.72665,22.72665 0 0 1 2.63062,3.39821 z" />
  <path
     inkscape:connector-curvature="0"
     id="path988"
     fill="#dd042b"
     d="m 110.22752,232.10623 a 22.75667,22.75667 0 1 1 -3.52684,-12.19042 22.81841,22.81841 0 0 1 3.52684,12.19042 z" />
  <path
     inkscape:connector-curvature="0"
     id="path990"
     fill="#fff"
     d="m 106.70068,219.91581 -22.46389,22.45974 c -1.41187,-2.1858 -9.27765,-12.34393 -9.27765,-12.34393 a 31.82988,31.82988 0 0 1 3.2198,-2.84223 l 6.52256,8.69678 19.36857,-19.36857 a 22.72658,22.72658 0 0 1 2.63061,3.39821 z" />
</svg>
