<svg id="e8e2026c-b237-4860-9f0c-6cc1509a5719" xmlns="http://www.w3.org/2000/svg" viewBox="0 0 529.47 361"><defs><style>.cls-1{fill:#fff;}.cls-2{fill:#ccc;}.cls-3{fill:#dd042b;}.cls-4{fill:#3f3d56;}</style></defs><path class="cls-1" d="M708.3,156.89c11,19.46,16,41.79,15.91,64.07a155,155,0,0,1-14.33,63.93,160.59,160.59,0,0,1-34.47,48.29,146.17,146.17,0,0,1-49.53,31.64,129.34,129.34,0,0,1-67.21,6.39c-3.13-.54-6.25-1.19-9.34-2-1.87-.46-2.67,2.43-.79,2.89a132.63,132.63,0,0,0,71.24-2.05A146.77,146.77,0,0,0,672,340.41a163,163,0,0,0,37.43-47.71A159.49,159.49,0,0,0,727,228.83c1.31-22.61-2.48-45.62-12.26-66.13q-1.77-3.73-3.81-7.33a1.5,1.5,0,0,0-2.59,1.52Z" transform="translate(-197.74 -46.26)"/><path class="cls-1" d="M549.09,50.62a325.73,325.73,0,0,1,28.3,71,343,343,0,0,1,5.83,151.56,323.93,323.93,0,0,1-22.79,73c-10.42,23.15-25.42,47.53-51,55.64a53.76,53.76,0,0,1-8.86,2c-1.91.26-1.1,3.15.8,2.89,26.5-3.63,44.92-25.65,56.47-48.1,12-23.23,20.46-48.45,26.12-73.91a345.64,345.64,0,0,0-1.18-154.12,330.45,330.45,0,0,0-26.53-72.8q-2.21-4.35-4.53-8.62C550.76,47.41,548.16,48.92,549.09,50.62Z" transform="translate(-197.74 -46.26)"/><path class="cls-2" d="M423.64,46.26H244A13.77,13.77,0,0,0,230.29,60v90h27.64A11.88,11.88,0,0,1,268,155.59l9.58,15.25,9.16,14.57,1.72,2.74L299,204.82l.12.19H437.39V60A13.77,13.77,0,0,0,423.64,46.26Z" transform="translate(-197.74 -46.26)"/><path class="cls-1" d="M352.45,73.77h-89a8.9,8.9,0,1,0,0,17.79h89a8.9,8.9,0,1,0,0-17.79Z" transform="translate(-197.74 -46.26)"/><path class="cls-1" d="M401.8,117.45H264.27a9.71,9.71,0,1,0,0,19.42H401.8a9.71,9.71,0,0,0,0-19.42Z" transform="translate(-197.74 -46.26)"/><path class="cls-1" d="M410.58,157a9.7,9.7,0,0,0-8.78-5.59H264.27l-.62,0a11.87,11.87,0,0,1,4.39,4.14l9.58,15.25H401.8A9.7,9.7,0,0,0,410.58,157Z" transform="translate(-197.74 -46.26)"/><path class="cls-1" d="M411.41,193.81a9.7,9.7,0,0,0-9.61-8.4h-115l1.72,2.74L299,204.82H401.8a9.72,9.72,0,0,0,9.7-9.71A9.36,9.36,0,0,0,411.41,193.81Z" transform="translate(-197.74 -46.26)"/><path class="cls-3" d="M521.19,123.76l-14-5.47-69.8-27.24L353.88,58.46a13.77,13.77,0,0,0-17.81,7.82l-2.92,7.49L326.2,91.56l-10.1,25.89-7.58,19.42-5.68,14.56-7.58,19.41-5.69,14.57-.16.42-.91,2.32L299,204.82l.12.19H493.21a11.92,11.92,0,0,1,9.29,4.44l.82-2.08,10-25.66L529,141.58A13.78,13.78,0,0,0,521.19,123.76Z" transform="translate(-197.74 -46.26)"/><path class="cls-1" d="M444.87,123.5l-7.48-2.92L362,91.15a8.9,8.9,0,1,0-6.47,16.58l24.91,9.72,30.81,12,26.17,10.22,1,.39a8.9,8.9,0,0,0,6.47-16.58Z" transform="translate(-197.74 -46.26)"/><path class="cls-1" d="M475,182.14l-37.56-14.66L410.58,157l-14.32-5.59L359,136.87l-12.12-4.73a9.71,9.71,0,0,0-12.23,4.73c-.12.25-.24.51-.34.78a9.71,9.71,0,0,0,5.51,12.57h0l3.1,1.21,49.72,19.41,44.79,17.48,30.5,11.91A9.71,9.71,0,1,0,475,182.14Z" transform="translate(-197.74 -46.26)"/><path class="cls-1" d="M437.39,204,435,203l-23.57-9.2-21.53-8.4-37.34-14.57-18.06-7.05a9.71,9.71,0,1,0-7.07,18.08h0l9,3.53,45.1,17.6,4.64,1.81.48.19H440.1Z" transform="translate(-197.74 -46.26)"/><path class="cls-1" d="M346.16,204.82,341.52,203l-19.39-7.57a9.69,9.69,0,0,0-12.56,5.49A9.41,9.41,0,0,0,309,203a9.13,9.13,0,0,0-.11,1.81,1.21,1.21,0,0,0,0,.19h37.74Z" transform="translate(-197.74 -46.26)"/><path class="cls-4" d="M386.21,204.82,381.57,203H309a9.13,9.13,0,0,0-.11,1.81H299l.12.19h87.59Zm0,0H299l.12.19h87.59Zm0,0H299l.12.19h87.59Zm.48.19-.48-.19H299l.12.19Zm-175,200.25a12,12,0,0,1-11.94-11.94V162A12,12,0,0,1,211.68,150h18.61v-2H211.68A14,14,0,0,0,197.74,162V393.32A14,14,0,0,0,205.91,406H382.09l-.48-.74ZM503.32,207.37A13.86,13.86,0,0,0,493.21,203h-193l-10.8-17.18-.26-.42L280,170.84l-10.26-16.32a14,14,0,0,0-11.8-6.52H211.68A14,14,0,0,0,197.74,162V393.32a14,14,0,0,0,13.94,13.94H493.21a14,14,0,0,0,14-13.94V217a13.87,13.87,0,0,0-3.84-9.59Zm1.84,186a12,12,0,0,1-12,11.94H211.68a12,12,0,0,1-11.94-11.94V162A12,12,0,0,1,211.68,150h46.25A11.88,11.88,0,0,1,268,155.59l9.58,15.25,9.16,14.57,1.72,2.74L299,204.82l.12.19H493.21a12,12,0,0,1,12,12Zm-119-188.5H299l.12.19h87.59Zm0,0H299l.12.19h87.59Zm0,0H299l.12.19h87.59Zm0,0L381.57,203H300.21l-10.8-17.18-.91,2.32L299,204.82l.12.19h87.59Z" transform="translate(-197.74 -46.26)"/></svg>