<svg id="e8e2026c-b237-4860-9f0c-6cc1509a5719" xmlns="http://www.w3.org/2000/svg" viewBox="0 0 332.2 361"><defs><style>.cls-1{fill:#ccc;}.cls-2{fill:#fff;}.cls-3{fill:#dd042b;}</style></defs><path class="cls-1" d="M437.39,60V205H299.1l-.12-.19L288.5,188.15l-1.72-2.74-9.16-14.57L268,155.59a12.41,12.41,0,0,0-1.39-1.81q-.27-.28-.54-.54a11.92,11.92,0,0,0-1.75-1.36,5.36,5.36,0,0,0-.57-.34l-.14-.09a12,12,0,0,0-5.72-1.45H230.29V60A13.77,13.77,0,0,1,244,46.26h179.6A13.77,13.77,0,0,1,437.39,60Z" transform="translate(-197.74 -46.26)"/><path class="cls-2" d="M352.45,73.77h-89a8.9,8.9,0,1,0,0,17.79h89a8.9,8.9,0,1,0,0-17.79Z" transform="translate(-197.74 -46.26)"/><path class="cls-2" d="M401.8,117.45H264.27a9.71,9.71,0,1,0,0,19.42H401.8a9.71,9.71,0,0,0,0-19.42Z" transform="translate(-197.74 -46.26)"/><path class="cls-2" d="M411.5,161.15a9.69,9.69,0,0,1-9.7,9.69H277.62L268,155.59a12.41,12.41,0,0,0-1.39-1.81,6.88,6.88,0,0,0-.54-.54,11.92,11.92,0,0,0-1.75-1.36,5.7,5.7,0,0,0-.57-.34l-.14-.09.62,0H401.8a9.72,9.72,0,0,1,9.7,9.72Z" transform="translate(-197.74 -46.26)"/><path class="cls-2" d="M411.5,195.11a9.71,9.71,0,0,1-4.07,7.9,9.57,9.57,0,0,1-5.63,1.81H299L288.5,188.15l-1.72-2.74h115a9.71,9.71,0,0,1,9.61,8.4A9.47,9.47,0,0,1,411.5,195.11Z" transform="translate(-197.74 -46.26)"/><path class="cls-3" d="M529,141.58l-15.66,40.13-10,25.66-.82,2.08q-.4-.49-.84-.93a3.07,3.07,0,0,0-.26-.25c-.19-.18-.39-.36-.59-.52a4,4,0,0,0-.4-.32l-.52-.37-.48-.31a11.3,11.3,0,0,0-1.55-.79l-.35-.14a8.5,8.5,0,0,0-1.11-.37l-.38-.1a10.56,10.56,0,0,0-1.59-.27c-.2,0-.41,0-.61-.05l-.61,0H299.1l-.12-.19L288.5,188.15l.91-2.32.16-.42,5.69-14.57,7.58-19.41,5.68-14.56,7.58-19.42,10.1-25.89,6.95-17.79,2.92-7.49a13.78,13.78,0,0,1,17.81-7.82l83.51,32.59,69.8,27.24,14,5.47A13.78,13.78,0,0,1,529,141.58Z" transform="translate(-197.74 -46.26)"/><path class="cls-2" d="M444.87,123.5l-7.48-2.92L362,91.15a8.9,8.9,0,1,0-6.47,16.58l24.91,9.72,30.81,12,26.17,10.22,1,.39a8.9,8.9,0,0,0,6.47-16.58Z" transform="translate(-197.74 -46.26)"/><path class="cls-2" d="M475,182.14l-37.56-14.66L410.58,157l-14.32-5.59L359,136.87l-12.12-4.73a9.71,9.71,0,0,0-12.23,4.73c-.12.25-.24.51-.34.78a9.71,9.71,0,0,0,5.51,12.57h0l3.1,1.21,49.72,19.41,44.79,17.48,30.5,11.91A9.71,9.71,0,1,0,475,182.14Z" transform="translate(-197.74 -46.26)"/><path class="cls-2" d="M440.1,205H386.69l-.48-.19L381.57,203l-45.1-17.6-9-3.53h0a9.68,9.68,0,0,1-6-11,8.7,8.7,0,0,1,.45-1.54,9.71,9.71,0,0,1,12.58-5.51l18.06,7.05,37.34,14.57,21.53,8.4L435,203l2.41.94Z" transform="translate(-197.74 -46.26)"/><path class="cls-2" d="M346.65,205H308.91a1.15,1.15,0,0,1,0-.19A9.17,9.17,0,0,1,309,203a9.41,9.41,0,0,1,.56-2.08,9.7,9.7,0,0,1,12.56-5.49L341.52,203l4.64,1.81Z" transform="translate(-197.74 -46.26)"/><path d="M386.21,204.82,381.57,203H300.21l-10.8-17.18-.91,2.32L299,204.82l.12.19h87.59Zm0,0H299l.12.19h87.59Zm0,0H299l.12.19h87.59Zm0,0H299l.12.19h87.59Zm-77.31,0H299l.12.19h9.81A1.15,1.15,0,0,1,308.9,204.82Zm194.42,2.55A13.9,13.9,0,0,0,493.21,203h-193l-10.8-17.18-.26-.42L280,170.84l-10.26-16.32a14,14,0,0,0-11.8-6.52H211.68A14,14,0,0,0,197.74,162V393.32A14,14,0,0,0,205.91,406a13.55,13.55,0,0,0,5.77,1.26H493.21A13.56,13.56,0,0,0,499,406a14,14,0,0,0,8.17-12.68V217A13.88,13.88,0,0,0,503.32,207.37Zm1.84,186a12,12,0,0,1-12,11.94H211.68a12,12,0,0,1-11.94-11.94V162A12,12,0,0,1,211.68,150h46.25a12,12,0,0,1,5.72,1.45l.14.09a5.36,5.36,0,0,1,.57.34,11.92,11.92,0,0,1,1.75,1.36q.27.25.54.54a12.41,12.41,0,0,1,1.39,1.81l9.58,15.25,9.16,14.57,1.72,2.74L299,204.82l.12.19H493.21l.61,0a6,6,0,0,1,.61.05,10.56,10.56,0,0,1,1.59.27l.38.1a8.5,8.5,0,0,1,1.11.37l.35.14a11.3,11.3,0,0,1,1.55.79l.48.31.52.37.4.32c.2.16.4.34.59.52l.26.25q.43.43.84.93a11.89,11.89,0,0,1,2.66,7.51ZM381.61,405.26H211.68a12,12,0,0,1-11.94-11.94V162A12,12,0,0,1,211.68,150h18.61v-2H211.68A14,14,0,0,0,197.74,162V393.32A14,14,0,0,0,205.91,406H382.09Zm4.6-200.44H299l.12.19h87.59Zm0,0H299l.12.19h87.59Zm0,0H299l.12.19h87.59Zm0,0L381.57,203H309a9.17,9.17,0,0,0-.11,1.81H299l.12.19h87.59Z" transform="translate(-197.74 -46.26)"/><path class="cls-2" d="M505.16,217V393.32a12,12,0,0,1-12,11.94H211.68a12,12,0,0,1-11.94-11.94V162A12,12,0,0,1,211.68,150h46.25a12,12,0,0,1,5.72,1.45l.14.09a5.36,5.36,0,0,1,.57.34,11.92,11.92,0,0,1,1.75,1.36,6.88,6.88,0,0,1,.54.54,12.41,12.41,0,0,1,1.39,1.81l9.58,15.25,9.16,14.57,1.72,2.74L299,204.82l.12.19H493.21l.61,0a6,6,0,0,1,.61.05,10.56,10.56,0,0,1,1.59.27l.38.1a8.5,8.5,0,0,1,1.11.37l.35.14a11.3,11.3,0,0,1,1.55.79l.48.31.52.37.4.32c.2.16.4.34.59.52l.26.25q.43.43.84.93A11.89,11.89,0,0,1,505.16,217Z" transform="translate(-197.74 -46.26)"/></svg>