<?xml version="1.0" encoding="utf-8"?>
<!-- Generator: Adobe Illustrator 25.0.0, SVG Export Plug-In . SVG Version: 6.00 Build 0)  -->
<svg version="1.1" id="Layer_1" xmlns="http://www.w3.org/2000/svg" xmlns:xlink="http://www.w3.org/1999/xlink" x="0px" y="0px"
	 viewBox="0 0 500 500" style="enable-background:new 0 0 500 500;" xml:space="preserve">
<style type="text/css">
	.st0{fill:#DD042B;}
	.st1{fill:#FFFFFF;}
</style>
<path class="st0" d="M396.7,63.6c-9.3-11.1-25.2-17.1-40.5-20.4c0.5-1.4-46.5-11.1-47.3-9.1L291.1,20l-54.4,28.3l-30.6-20.8l-14.2,5
	c0.6-2.5-44.1,5.2-44.1,5.2c-8.5,0.3-19.4,0.8-31.6,1.8c-42.7,3.3-46,114-46,114c19.7-8,40.6-12.4,61.9-13l11.6,324.1
	c59.4-5.1,121.7,0.8,186.3,15.3l30.3-295.8l70.5-27.4C430.7,156.7,418.6,89.9,396.7,63.6z"/>
<path id="path838" class="st1" d="M294.2,168c4-0.4,7.7-2.3,10.3-5.3c0.5-0.6,1.1-1.4,1.1-1.5c0,0-0.3-0.3-0.7-0.5
	c-0.5-0.4-0.7-0.5-0.7-0.4c-0.2,0.4-1.2,1.5-1.8,2.2c-2.1,2-4.6,3.3-7.6,3.8c-0.7,0.1-2.6,0.2-3.4,0.1c-1.7-0.2-3.7-0.8-5.1-1.5
	c-2.8-1.5-5-3.9-6.2-6.7c-2.3-5.3-1.2-11.3,2.8-15.3c1.6-1.6,3.4-2.7,5.5-3.4c1-0.3,2.6-0.7,3.2-0.7l0.2,0v1.3v1.3h0.8h0.8V140v-1.3
	l0.3,0c1.1,0.1,2.3,0.3,3.3,0.7c0.3,0.1,0.6,0.2,0.6,0.2c0,0,0.2-0.3,0.3-0.8c0.2-0.5,0.3-0.7,0.2-0.8c0,0-0.4-0.1-0.8-0.3
	c-1.1-0.4-2.4-0.6-3.5-0.7c-0.3,0-0.5-0.1-0.5-0.1c0,0,0-0.5,0-1.1l0-1.1l0.8,0c0.8,0,0.8,0,1.2-0.2c0.9-0.4,1.4-1.3,1.4-2.6
	c0-0.7-0.1-1.2-0.3-1.7c-0.3-0.6-1-1.1-1.7-1.2c-0.2,0-0.8-0.1-1.6,0l-1.3,0l0,3.8c0,2.1,0,3.9,0,4l0,0.2l-0.6,0.1
	c-5.3,0.6-9.9,3.8-12.3,8.5c-0.8,1.5-1.2,3-1.5,4.8c-0.1,0.9-0.1,3.5,0,4.3c0.4,2.9,1.5,5.2,3.2,7.5c0.5,0.7,2,2.1,2.7,2.6
	c2.4,1.8,5.1,2.9,8.1,3.2C292,168.1,293.5,168.1,294.2,168L294.2,168z M293.5,131.9v-1.2l0.5,0c0.4,0,0.5,0,0.7,0.1
	c0.2,0.2,0.4,0.4,0.4,0.9c0,0.5-0.1,0.8-0.3,1.1c-0.2,0.2-0.2,0.2-0.7,0.2h-0.5V131.9z M308.1,157.6c0.8-0.4,1.3-1.3,1.2-2.3
	c-0.1-1-0.9-1.7-1.9-1.9c-0.9-0.1-1.6,0.2-2.1,0.9c-0.3,0.4-0.4,0.9-0.4,1.4c0,0.4,0.1,0.5,0.2,0.8c0.4,0.8,1.2,1.3,2.2,1.2
	C307.7,157.7,307.8,157.7,308.1,157.6z M306.7,156.5c-0.2-0.1-0.3-0.1-0.4-0.2c-0.7-0.5-0.5-1.6,0.4-1.8c0.6-0.1,1.3,0.1,1.6,0.5
	c0.1,0.2,0.2,0.2,0.2,0.6c0,0.3,0,0.4-0.2,0.6c-0.1,0.1-0.2,0.2-0.4,0.3C307.6,156.6,307,156.6,306.7,156.5L306.7,156.5z
	 M309.6,152.5c0.1-0.3,0.1-0.6-0.1-0.8c0-0.1-0.2-0.2-0.4-0.3l-0.3-0.2l0.3,0l0.3,0l0-0.3c-0.1-0.7-0.1-0.7-0.3-0.7
	c-0.1,0-1,0.1-2.1,0.2c-1,0.1-1.9,0.2-1.9,0.2c-0.1,0,0,1,0.1,1.1c0,0,0.4,0,0.8-0.1c0.4,0,1.1-0.1,1.4-0.1c0.7,0,1,0.1,1.1,0.4
	c0.1,0.2,0.1,0.5,0,0.7c0,0.1,0.1,0.1,0.4,0.2C309.5,152.8,309.5,152.8,309.6,152.5L309.6,152.5z M307,149c1.1-0.3,2-0.6,2-0.6
	c0,0-0.3-1-0.3-1c0,0-4,1.1-4,1.2c0,0,0,0.2,0.1,0.5c0.2,0.6,0.2,0.6,0.2,0.6C305,149.6,305.9,149.3,307,149L307,149z M310.2,148.1
	c0.2-0.1,0.4-0.1,0.4-0.2c0-0.2-0.3-1-0.3-1c0,0-0.2,0.1-0.5,0.1c-0.2,0.1-0.4,0.1-0.4,0.1c0,0,0,0.3,0.1,0.5
	C309.6,148.3,309.5,148.3,310.2,148.1z M305.8,147c0.6-0.4,1.2-0.8,1.4-0.9c0.9-0.7,0.6-2.1-0.6-2.5l-0.3-0.1l0.2-0.1
	c0.1-0.1,0.4-0.3,0.7-0.4s0.5-0.3,0.7-0.4l0.2-0.1l-0.3-0.5c-0.2-0.3-0.3-0.5-0.4-0.4c-0.1,0-4.8,2.9-4.9,3c0,0,0,0.2,0.2,0.5
	c0.1,0.2,0.3,0.4,0.3,0.5c0,0.1,0.3-0.1,1.1-0.5c1.2-0.7,1.4-0.8,1.7-0.8c0.5,0,1,0.5,0.8,0.9c-0.1,0.2-0.3,0.4-1.5,1.2l-1.2,0.7
	l0.1,0.2c0.4,0.6,0.5,0.7,0.5,0.7C304.6,147.7,305.1,147.4,305.8,147L305.8,147z M302.8,143.4c0.2-0.1,0.4-0.2,0.4-0.2
	c0,0-0.1-0.2-0.3-0.5l-0.3-0.4l-0.2,0.1c-0.3,0.2-0.5,0.2-0.7,0.1c-0.5-0.2-0.7-0.7-0.4-1.3c0.2-0.4,0.8-1,1.1-1.1
	c0.6-0.2,1.2,0.4,1,1c0,0.1-0.1,0.2,0,0.2c0.1,0.1,0.9,0.5,0.9,0.5c0.1,0,0.2-0.4,0.2-0.8c0-0.6-0.3-1.1-1-1.5
	c-0.5-0.3-0.9-0.4-1.4-0.4c-0.5,0.1-0.8,0.3-1.2,0.7c-0.5,0.5-0.7,0.9-0.8,1.4c-0.2,0.9,0.5,1.9,1.6,2.3
	C301.8,143.6,302.4,143.6,302.8,143.4L302.8,143.4z"/>
<g>
	<path class="st1" d="M261.3,172.4h5.2v1.5h-3.3v0.8h2.8v1.4h-2.8v0.9h3.4v1.5h-5.3V172.4z"/>
	<path class="st1" d="M267.6,172.4h1.9v4.5h3.1v1.5h-5.1V172.4z"/>
	<path class="st1" d="M276,177h2.9v1.5h-5.9v-0.6l2.8-4h-2.6v-1.5h5.6v0.6L276,177z"/>
	<path class="st1" d="M279.8,172.4h5.2v1.5h-3.3v0.8h2.8v1.4h-2.8v0.9h3.4v1.5h-5.3V172.4z"/>
	<path class="st1" d="M290.7,172.7c0.5,0.3,0.8,0.8,0.8,1.4v0.1h-1.8v0c0-0.2-0.1-0.3-0.2-0.4c-0.1-0.1-0.3-0.2-0.6-0.2
		c-0.3,0-0.5,0-0.6,0.1c-0.1,0.1-0.2,0.2-0.2,0.3c0,0.2,0.1,0.3,0.3,0.4s0.5,0.2,0.9,0.2c0.5,0.1,0.9,0.2,1.2,0.3
		c0.3,0.1,0.6,0.3,0.8,0.5c0.2,0.2,0.4,0.6,0.4,1c0,0.7-0.2,1.2-0.7,1.6c-0.5,0.3-1.1,0.5-1.9,0.5c-0.9,0-1.7-0.2-2.2-0.5
		s-0.8-0.9-0.8-1.7h1.8c0,0.3,0.1,0.5,0.2,0.6c0.2,0.1,0.4,0.2,0.7,0.2c0.2,0,0.5,0,0.6-0.1s0.2-0.2,0.2-0.3c0-0.1-0.1-0.3-0.3-0.3
		s-0.5-0.2-0.9-0.2c-0.5-0.1-0.9-0.2-1.2-0.3c-0.3-0.1-0.6-0.3-0.8-0.6c-0.2-0.3-0.4-0.6-0.4-1.1c0-0.7,0.3-1.2,0.8-1.5
		s1.2-0.5,2-0.5C289.5,172.3,290.2,172.4,290.7,172.7z"/>
	<path class="st1" d="M296,173.9v4.5h-1.9v-4.5h-2v-1.5h5.9v1.5H296z"/>
	<path class="st1" d="M304.4,175.2c-0.2,0.3-0.5,0.5-0.9,0.7l1.3,2.5h-2.2l-1.1-2.2h-0.7v2.2h-1.9v-6.1h3.7c0.4,0,0.8,0.1,1.1,0.3
		c0.3,0.2,0.5,0.4,0.7,0.7c0.2,0.3,0.2,0.6,0.2,0.9C304.7,174.6,304.6,174.9,304.4,175.2z M302.5,173.9c-0.1-0.1-0.2-0.2-0.4-0.2
		h-1.3v1.1h1.3c0.2,0,0.3-0.1,0.4-0.2s0.2-0.2,0.2-0.4C302.7,174.2,302.6,174,302.5,173.9z"/>
	<path class="st1" d="M309.8,178.4l-0.3-0.9h-2.1l-0.3,0.9h-2l2.2-6.1h2.3l2.2,6.1H309.8z M307.8,176.2h1.3l-0.6-2.2h0L307.8,176.2z
		"/>
	<path class="st1" d="M316.7,178.4l-0.3-0.9h-2.1l-0.3,0.9h-2l2.2-6.1h2.3l2.2,6.1H316.7z M314.7,176.2h1.3l-0.6-2.2h0L314.7,176.2z
		"/>
	<path class="st1" d="M322.3,173.9v4.5h-1.9v-4.5h-2v-1.5h5.9v1.5H322.3z"/>
</g>
</svg>
