<?xml version="1.0" encoding="UTF-8" standalone="no"?>
<svg
   xmlns:dc="http://purl.org/dc/elements/1.1/"
   xmlns:cc="http://creativecommons.org/ns#"
   xmlns:rdf="http://www.w3.org/1999/02/22-rdf-syntax-ns#"
   xmlns:svg="http://www.w3.org/2000/svg"
   xmlns="http://www.w3.org/2000/svg"
   xmlns:xlink="http://www.w3.org/1999/xlink"
   xmlns:sodipodi="http://sodipodi.sourceforge.net/DTD/sodipodi-0.dtd"
   xmlns:inkscape="http://www.inkscape.org/namespaces/inkscape"
   inkscape:version="1.0beta1 (fe3e306, 2019-09-17)"
   sodipodi:docname="undraw_exploring_1l7f.svg"
   version="1.1"
   viewBox="0 0 1089.05 792.04"
   height="792.04"
   width="1089.05"
   data-name="Layer 1"
   id="6d8c951e-08f3-4e9b-9bbb-c5bd07483b7d">
  <metadata
     id="metadata738">
    <rdf:RDF>
      <cc:Work
         rdf:about="">
        <dc:format>image/svg+xml</dc:format>
        <dc:type
           rdf:resource="http://purl.org/dc/dcmitype/StillImage" />
      </cc:Work>
    </rdf:RDF>
  </metadata>
  <sodipodi:namedview
     inkscape:current-layer="6d8c951e-08f3-4e9b-9bbb-c5bd07483b7d"
     inkscape:window-maximized="1"
     inkscape:window-y="-11"
     inkscape:window-x="2293"
     inkscape:cy="543.04466"
     inkscape:cx="591.19993"
     inkscape:zoom="1.4"
     showgrid="false"
     id="namedview736"
     inkscape:window-height="2066"
     inkscape:window-width="3840"
     inkscape:pageshadow="2"
     inkscape:pageopacity="0"
     guidetolerance="10"
     gridtolerance="10"
     objecttolerance="10"
     borderopacity="1"
     inkscape:document-rotation="0"
     bordercolor="#666666"
     pagecolor="#ffffff" />
  <defs
     id="defs383">
    <linearGradient
       gradientUnits="userSpaceOnUse"
       gradientTransform="matrix(-1, 0, 0, 1, 828.87, 0)"
       y2="134.03"
       x2="363.23"
       y1="724.55"
       x1="363.23"
       id="dc384eb3-1ab8-4ed8-85c9-3c05fb4364da">
      <stop
         id="stop375"
         stop-opacity="0.25"
         stop-color="gray"
         offset="0" />
      <stop
         id="stop377"
         stop-opacity="0.12"
         stop-color="gray"
         offset="0.54" />
      <stop
         id="stop379"
         stop-opacity="0.1"
         stop-color="gray"
         offset="1" />
    </linearGradient>
    <linearGradient
       xlink:href="#dc384eb3-1ab8-4ed8-85c9-3c05fb4364da"
       gradientTransform="matrix(1, 0, 0, 1, 0, 0)"
       y2="530.17"
       x2="646.9"
       y1="676.21"
       x1="646.9"
       id="fe70a47d-0b65-4156-9878-337bc12fa6de" />
  </defs>
  <title
     id="title385">exploring</title>
  <path
     transform="translate(-55.48 -53.98)"
     id="path387"
     opacity="0.1"
     fill="#dd042b"
     d="M660.34,436h0a141.82,141.82,0,0,0-75.07,21.37A142.43,142.43,0,0,0,442.85,316h0a142.06,142.06,0,0,0-49.64,8.9V290.43A142.43,142.43,0,0,0,250.77,148h0A142.43,142.43,0,0,0,108.34,290.43v378H802.77v-90A142.43,142.43,0,0,0,660.34,436Z" />
  <path
     id="path389"
     stroke-width="2"
     stroke-miterlimit="10"
     stroke="#535461"
     fill="none"
     transform="translate(-55.48 -53.98)"
     d="M821.67,651.45s20-31.35,22.36-44.74A172.59,172.59,0,0,1,851,581" />
  <path
     style="fill:#7cb342;fill-opacity:1"
     id="path391"
     fill="#dd042b"
     transform="translate(-55.48 -53.98)"
     d="M855.54,607.78,843,608.85S849.65,620.36,855.54,607.78Z" />
  <path
     style="fill:#7cb342;fill-opacity:1"
     id="path393"
     fill="#dd042b"
     transform="translate(-55.48 -53.98)"
     d="M833.58,600.82l10,8S830.64,613.94,833.58,600.82Z" />
  <path
     style="fill:#7cb342;fill-opacity:1"
     id="path395"
     fill="#dd042b"
     transform="translate(-55.48 -53.98)"
     d="M857.15,596.8l-11.33,1.52S855.81,606.44,857.15,596.8Z" />
  <path
     style="fill:#7cb342;fill-opacity:1"
     id="path397"
     fill="#dd042b"
     transform="translate(-55.48 -53.98)"
     d="M838.4,592.78l7.48,5.25S836.8,601.89,838.4,592.78Z" />
  <path
     style="fill:#7cb342;fill-opacity:1"
     id="path399"
     fill="#dd042b"
     transform="translate(-55.48 -53.98)"
     d="M848.66,588s9.29-2.46,10.63-1.92.54,6.42-3.21,6.69S848.66,588,848.66,588Z" />
  <path
     style="fill:#7cb342;fill-opacity:1"
     id="path401"
     fill="#dd042b"
     transform="translate(-55.48 -53.98)"
     d="M842.42,581s5.89,5.62,6.16,7-4.82,4.55-7.5,0S842.42,581,842.42,581Z" />
  <circle
     id="circle403"
     fill="#ffd037"
     r="2.68"
     cy="527.55"
     cx="797.92" />
  <circle
     id="circle405"
     fill="#ffd037"
     r="2.68"
     cy="526.21"
     cx="793.1" />
  <path
     id="path407"
     opacity="0.1"
     fill="#dd042b"
     transform="translate(-55.48 -53.98)"
     d="M709.89,339.1c-10,10.11-10.61,25.61-10.61,25.61s15.49-.88,25.45-11,10.61-25.61,10.61-25.61S719.85,329,709.89,339.1Z" />
  <path
     id="path409"
     opacity="0.1"
     fill="#dd042b"
     transform="translate(-55.48 -53.98)"
     d="M625,270.09c3.53,13.75,16.47,22.3,16.47,22.3s7.23-13.73,3.71-27.48-16.48-22.29-16.48-22.29S621.5,256.35,625,270.09Z" />
  <path
     id="path411"
     opacity="0.1"
     fill="#dd042b"
     transform="translate(-55.48 -53.98)"
     d="M805.85,400.9c-10,10.11-10.62,25.61-10.62,25.61s15.49-.88,25.45-11,10.62-25.61,10.62-25.61S815.81,390.79,805.85,400.9Z" />
  <path
     id="path413"
     opacity="0.1"
     fill="#dd042b"
     transform="translate(-55.48 -53.98)"
     d="M845.7,487.92c-1.16,14.14,8.27,26.46,8.27,26.46s11.33-10.61,12.49-24.75-8.27-26.46-8.27-26.46S846.86,473.78,845.7,487.92Z" />
  <path
     id="path415"
     opacity="0.1"
     fill="#dd042b"
     transform="translate(-55.48 -53.98)"
     d="M1076.63,422c-1.16,14.14,8.28,26.46,8.28,26.46s11.32-10.61,12.48-24.75-8.27-26.46-8.27-26.46S1077.79,407.88,1076.63,422Z" />
  <path
     id="path417"
     fill="#dd042b"
     transform="translate(-55.48 -53.98)"
     d="M119.93,657.87s444.33-84.68,934,0S-123.37,729.56,119.93,657.87Z" />
  <path
     id="path419"
     fill="#dd042b"
     transform="translate(-55.48 -53.98)"
     d="M366.22,671.67c.79,10.12-9.08,17.77-18.52,21.48s-20.21,6-26.72,13.76a12.63,12.63,0,0,0-3.25,7.26c-.3,5.93,5.22,10.43,10.53,13.07,15.2,7.54,32.67,8.46,49.38,11.39s34.31,8.88,43.91,22.87C426,768,428.42,775.85,433.41,782c8,9.77,21.71,13.61,34.21,11.92s23.9-8.22,33.72-16.14c11-8.87,21.14-20,34.83-23.52,23.56-6.11,45.58,12.14,68.09,21.42,27.18,11.2,58.14,9.32,86.69,2.29,6.4-1.58,12.88-3.46,18.33-7.17,6.29-4.27,10.8-10.67,16.69-15.47,14.62-11.92,35.17-12.37,54-12.26l54.69.31c10.81.06,22.33-.08,31.37-6,9.27-6.08,14.17-17.66,13.58-28.73s-6.14-21.51-13.91-29.42c-17.27-17.58-43.33-22.58-67.75-26C680.43,637,561.25,638.33,442.59,639.68c-19.85.23-39.8.44-59.5,3.19-4.89.68-25.26,1.69-27.18,6.88C354.1,654.63,365.75,665.64,366.22,671.67Z" />
  <ellipse
     id="ellipse421"
     fill="#dd042b"
     ry="6.8"
     rx="40.21"
     cy="704.93"
     cx="172.77" />
  <ellipse
     id="ellipse423"
     fill="#dd042b"
     ry="6.8"
     rx="40.21"
     cy="761.35"
     cx="204.73" />
  <ellipse
     id="ellipse425"
     fill="#dd042b"
     ry="4.55"
     rx="26.93"
     cy="667.18"
     cx="79.79" />
  <ellipse
     id="ellipse427"
     fill="#dd042b"
     ry="4.55"
     rx="26.93"
     cy="725.47"
     cx="299.16" />
  <ellipse
     id="ellipse429"
     fill="#dd042b"
     ry="4.55"
     rx="26.93"
     cy="687.68"
     cx="876.82" />
  <ellipse
     id="ellipse431"
     fill="#dd042b"
     ry="4.55"
     rx="26.93"
     cy="732.09"
     cx="706.79" />
  <ellipse
     id="ellipse433"
     fill="#dd042b"
     ry="6.8"
     rx="40.21"
     cy="704.93"
     cx="991.33" />
  <ellipse
     id="ellipse435"
     fill="#dd042b"
     ry="10.98"
     rx="64.95"
     cy="743.07"
     cx="829.47" />
  <ellipse
     id="ellipse437"
     fill="#dd042b"
     ry="15.34"
     rx="90.76"
     cy="776.69"
     cx="522.22" />
  <path
     id="path439"
     fill="#dd042b"
     transform="translate(-55.48 -53.98)"
     d="M1054.26,525.23s-20.33,20.33-8.85,50.49-19.68,80.34-19.68,80.34l1-.16c41.75-7.37,62.5-55.13,39.28-90.6C1057.34,552.11,1050.25,536.64,1054.26,525.23Z" />
  <path
     id="path441"
     stroke-miterlimit="10"
     stroke="#535461"
     fill="none"
     transform="translate(-55.48 -53.98)"
     d="M1054.26,525.23s-11.47,24.92,0,45.25,2,77.38-28.53,85.58" />
  <path
     id="path443"
     fill="#dd042b"
     transform="translate(-55.48 -53.98)"
     d="M1090.47,607.45s-23.2-3.69-25.31,17.1-44.61,23.67-44.61,23.67l.8.53c35.08,23,68.62,14.67,63.57-15.91C1083,621.47,1083.19,610.05,1090.47,607.45Z" />
  <path
     id="path445"
     opacity="0.2"
     fill="#f5f5f5"
     transform="translate(-55.48 -53.98)"
     d="M1090.47,607.45s-23.2-3.69-25.31,17.1-44.61,23.67-44.61,23.67l.8.53c35.08,23,68.62,14.67,63.57-15.91C1083,621.47,1083.19,610.05,1090.47,607.45Z" />
  <path
     id="path447"
     stroke-miterlimit="10"
     stroke="#535461"
     fill="none"
     transform="translate(-55.48 -53.98)"
     d="M1090.47,607.45s-18,4-16.53,20.33-26.74,36-53.39,20.44" />
  <path
     id="path449"
     stroke-width="2"
     stroke-miterlimit="10"
     stroke="#535461"
     fill="none"
     transform="translate(-55.48 -53.98)"
     d="M817.38,627.68s-6.21-21.08,1.16-36.6a33.27,33.27,0,0,0,2.7-20.89,56.7,56.7,0,0,0-3-9.81" />
  <path
     style="fill:#7cb342;fill-opacity:1"
     id="path451"
     fill="#dd042b"
     transform="translate(-55.48 -53.98)"
     d="M822.87,550.57c0,2.59-4.68,10.08-4.68,10.08s-4.68-7.49-4.68-10.08a4.68,4.68,0,1,1,9.36,0Z" />
  <path
     style="fill:#7cb342;fill-opacity:1"
     id="path453"
     fill="#dd042b"
     transform="translate(-55.48 -53.98)"
     d="M830.6,564.89c-1.4,2.17-9.4,5.91-9.4,5.91s.14-8.83,1.55-11a4.68,4.68,0,1,1,7.85,5.09Z" />
  <path
     style="fill:#7cb342;fill-opacity:1"
     id="path455"
     fill="#dd042b"
     transform="translate(-55.48 -53.98)"
     d="M830.26,589.35c-2.3,1.16-11.1.36-11.1.36s4.58-7.56,6.89-8.72a4.68,4.68,0,0,1,4.21,8.36Z" />
  <path
     style="fill:#7cb342;fill-opacity:1"
     id="path457"
     fill="#dd042b"
     transform="translate(-55.48 -53.98)"
     d="M825.84,607.79C823.76,609.33,815,610,815,610s3.24-8.22,5.32-9.76a4.68,4.68,0,1,1,5.56,7.52Z" />
  <path
     style="fill:#7cb342;fill-opacity:1"
     id="path459"
     fill="#dd042b"
     transform="translate(-55.48 -53.98)"
     d="M811.37,571.3c1.86,1.8,10.49,3.67,10.49,3.67s-2.11-8.58-4-10.38a4.68,4.68,0,0,0-6.52,6.71Z" />
  <path
     style="fill:#7cb342;fill-opacity:1"
     id="path461"
     fill="#dd042b"
     transform="translate(-55.48 -53.98)"
     d="M806.47,592.94c2.31,1.17,11.11.36,11.11.36s-4.59-7.55-6.89-8.71a4.68,4.68,0,1,0-4.22,8.35Z" />
  <path
     style="fill:#7cb342;fill-opacity:1"
     id="path463"
     fill="#dd042b"
     transform="translate(-55.48 -53.98)"
     d="M804.6,614.63c2.08,1.54,10.88,2.23,10.88,2.23s-3.24-8.21-5.32-9.75a4.68,4.68,0,1,0-5.56,7.52Z" />
  <path
     id="path465"
     fill="#a8a8a8"
     transform="translate(-55.48 -53.98)"
     d="M803.87,625.63s11.35-2.27,14.37-5.29,16.65-8.33,18.16-4.54,20.42,16.64,7.56,18.91-30.26,3-34,1.51S803.87,625.63,803.87,625.63Z" />
  <path
     id="path467"
     opacity="0.2"
     transform="translate(-55.48 -53.98)"
     d="M844,633.3c-12.86,2.27-30.26,3-34,1.52-2.88-1.16-4.88-6.69-5.67-9.27l-.38.08s2.27,9.08,6,10.59,21.18.76,34-1.51c3.72-.66,4.78-2.19,4.38-4.14C848,631.84,846.73,632.82,844,633.3Z" />
  <path
     id="path469"
     fill="#a8a8a8"
     transform="translate(-55.48 -53.98)"
     d="M720.9,693.48s34.43-6.89,43.62-16.07,50.5-25.26,55.09-13.78,62,50.51,23,57.39-91.83,9.19-103.31,4.59S720.9,693.48,720.9,693.48Z" />
  <path
     id="path471"
     opacity="0.2"
     transform="translate(-55.48 -53.98)"
     d="M842.57,716.76c-39,6.89-91.83,9.18-103.31,4.59-8.74-3.5-14.81-20.3-17.21-28.11l-1.15.24s6.89,27.54,18.36,32.13,64.28,2.3,103.31-4.59c11.26-2,14.48-6.65,13.27-12.56C854.88,712.31,851,715.28,842.57,716.76Z" />
  <path
     id="path473"
     fill="#dd042b"
     transform="translate(-55.48 -53.98)"
     d="M145.94,559.43c15.33,22.63,10.44,103.64,10.44,103.64s-77-25.5-92.38-48.13a49.49,49.49,0,1,1,81.94-55.51Z" />
  <path
     id="path475"
     opacity="0.1"
     transform="translate(-55.48 -53.98)"
     d="M145.94,559.43c15.33,22.63,10.44,103.64,10.44,103.64s-77-25.5-92.38-48.13a49.49,49.49,0,1,1,81.94-55.51Z" />
  <path
     id="path477"
     stroke-miterlimit="10"
     stroke="#535461"
     fill="none"
     transform="translate(-55.48 -53.98)"
     d="M77.51,546.27s57.74,44.57,79.17,116.86" />
  <path
     id="path479"
     fill="#dd042b"
     transform="translate(-55.48 -53.98)"
     d="M171.22,601.73s-41-7-12.95,60.91c0,0,28.49-10.86,30.71-37.88a21.56,21.56,0,0,0-17.15-22.92Z" />
  <path
     id="path481"
     stroke-miterlimit="10"
     stroke="#535461"
     fill="none"
     transform="translate(-55.48 -53.98)"
     d="M171.82,601.65s7.82,37.56-13.55,61" />
  <path
     style="fill:#7cb342;fill-opacity:1"
     id="path483"
     fill="#dd042b"
     transform="translate(-55.48 -53.98)"
     d="M1021.79,600.3s5.49,7.19-2.54,18-14.65,20-12,26.77c0,0,12.11-20.15,22-20.43S1032.63,612.42,1021.79,600.3Z" />
  <path
     id="path485"
     opacity="0.1"
     transform="translate(-55.48 -53.98)"
     d="M1021.79,600.3a9.25,9.25,0,0,1,1.12,2.26c9.62,11.3,14.74,21.85,5.5,22.11-8.62.25-19,15.65-21.43,19.54a9.3,9.3,0,0,0,.3.89s12.11-20.15,22-20.43S1032.63,612.42,1021.79,600.3Z" />
  <path
     id="path487"
     fill="#ffd037"
     transform="translate(-55.48 -53.98)"
     d="M1032,609.46c0,2.53-.29,4.58-.64,4.58s-.63-2-.63-4.58.36-1.34.71-1.34S1032,606.93,1032,609.46Z" />
  <path
     id="path489"
     fill="#ffd037"
     transform="translate(-55.48 -53.98)"
     d="M1035.5,612.48c-2.22,1.21-4.15,1.94-4.32,1.63s1.5-1.53,3.72-2.74,1.34-.33,1.51,0S1037.72,611.27,1035.5,612.48Z" />
  <path
     style="fill:#7cb342;fill-opacity:1"
     id="path491"
     fill="#dd042b"
     transform="translate(-55.48 -53.98)"
     d="M992.77,600.3s-5.49,7.19,2.53,18,14.65,20,12,26.77c0,0-12.12-20.15-22-20.43S981.92,612.42,992.77,600.3Z" />
  <path
     id="path493"
     opacity="0.1"
     transform="translate(-55.48 -53.98)"
     d="M992.77,600.3a8.83,8.83,0,0,0-1.12,2.26c-9.62,11.3-14.75,21.85-5.5,22.11,8.61.25,19,15.65,21.42,19.54a9.24,9.24,0,0,1-.29.89s-12.12-20.15-22-20.43S981.92,612.42,992.77,600.3Z" />
  <path
     id="path495"
     fill="#ffd037"
     transform="translate(-55.48 -53.98)"
     d="M982.56,609.46c0,2.53.28,4.58.63,4.58s.63-2,.63-4.58-.35-1.34-.7-1.34S982.56,606.93,982.56,609.46Z" />
  <path
     id="path497"
     fill="#ffd037"
     transform="translate(-55.48 -53.98)"
     d="M979.05,612.48c2.22,1.21,4.16,1.94,4.33,1.63s-1.5-1.53-3.72-2.74-1.35-.33-1.51,0S976.83,611.27,979.05,612.48Z" />
  <path
     id="path499"
     fill="#a8a8a8"
     transform="translate(-55.48 -53.98)"
     d="M984.31,644.16s15.36-.48,20-3.77,23.63-7.23,24.78-1.95,23.08,26.29,5.74,26.43-40.29-2.7-44.91-5.51S984.31,644.16,984.31,644.16Z" />
  <path
     id="path501"
     opacity="0.2"
     transform="translate(-55.48 -53.98)"
     d="M1035.12,663c-17.34.14-40.29-2.7-44.91-5.51-3.52-2.14-4.92-9.83-5.39-13.38l-.51,0s1,12.38,5.59,15.2,27.57,5.65,44.91,5.51c5,0,6.74-1.82,6.64-4.45C1040.75,662,1038.85,663,1035.12,663Z" />
  <path
     id="path503"
     fill="#dd042b"
     transform="translate(-55.48 -53.98)"
     d="M1063.43,747.8a11.64,11.64,0,0,0,3.83-5.79c.5-2.3-.48-5-2.68-5.89-2.46-.94-5.08.76-7.08,2.49s-4.27,3.68-6.88,3.32a10.5,10.5,0,0,0,3.24-9.81,4.11,4.11,0,0,0-.9-2c-1.37-1.45-3.84-.83-5.48.32-5.2,3.66-6.65,10.72-6.68,17.08-.52-2.29-.08-4.68-.09-7s-.66-5-2.65-6.23a8,8,0,0,0-4-1c-2.34-.08-5,.15-6.54,1.86-2,2.13-1.47,5.69.25,8s4.35,3.8,6.77,5.42a15.13,15.13,0,0,1,4.84,4.61,5.06,5.06,0,0,1,.35.82h14.66A40.73,40.73,0,0,0,1063.43,747.8Z" />
  <path
     id="path505"
     fill="#dd042b"
     transform="translate(-55.48 -53.98)"
     d="M371.26,768.57a11.73,11.73,0,0,0,3.84-5.79c.49-2.29-.49-5-2.68-5.89-2.46-.94-5.09.77-7.08,2.49s-4.28,3.69-6.89,3.32a10.47,10.47,0,0,0,3.24-9.81,4.12,4.12,0,0,0-.9-2c-1.37-1.46-3.84-.84-5.48.31-5.2,3.66-6.65,10.73-6.67,17.08-.53-2.29-.09-4.68-.1-7s-.66-5-2.64-6.23a8,8,0,0,0-4-.94c-2.34-.09-4.94.15-6.54,1.86-2,2.12-1.47,5.68.26,8s4.35,3.81,6.76,5.42a15,15,0,0,1,4.84,4.61,4.83,4.83,0,0,1,.36.83H362.2A40.77,40.77,0,0,0,371.26,768.57Z" />
  <path
     id="path507"
     stroke-width="2"
     stroke-miterlimit="10"
     stroke="#535461"
     fill="none"
     transform="translate(-55.48 -53.98)"
     d="M272.26,675.45s-14.06-47.71,2.63-82.83a75.4,75.4,0,0,0,6.1-47.27,127.26,127.26,0,0,0-6.7-22.19" />
  <path
     id="path509"
     fill="#dd042b"
     transform="translate(-55.48 -53.98)"
     d="M284.68,501c0,5.84-10.59,22.8-10.59,22.8s-10.59-17-10.59-22.8a10.59,10.59,0,0,1,21.18,0Z" />
  <path
     id="path511"
     fill="#dd042b"
     transform="translate(-55.48 -53.98)"
     d="M302.18,533.36c-3.18,4.9-21.28,13.38-21.28,13.38s.32-20,3.5-24.89a10.59,10.59,0,1,1,17.78,11.51Z" />
  <path
     id="path513"
     fill="#dd042b"
     transform="translate(-55.48 -53.98)"
     d="M301.41,588.7c-5.22,2.63-25.13.81-25.13.81s10.38-17.08,15.6-19.72a10.59,10.59,0,1,1,9.53,18.91Z" />
  <path
     id="path515"
     fill="#dd042b"
     transform="translate(-55.48 -53.98)"
     d="M291.4,630.45c-4.7,3.47-24.63,5-24.63,5s7.34-18.59,12-22.07a10.59,10.59,0,1,1,12.59,17Z" />
  <path
     id="path517"
     fill="#dd042b"
     transform="translate(-55.48 -53.98)"
     d="M258.67,547.87c4.19,4.08,23.73,8.3,23.73,8.3s-4.79-19.41-9-23.48a10.58,10.58,0,1,0-14.75,15.18Z" />
  <path
     id="path519"
     fill="#dd042b"
     transform="translate(-55.48 -53.98)"
     d="M247.58,596.84c5.22,2.64,25.13.82,25.13.82s-10.38-17.09-15.6-19.72a10.58,10.58,0,1,0-9.53,18.9Z" />
  <path
     id="path521"
     fill="#dd042b"
     transform="translate(-55.48 -53.98)"
     d="M243.34,645.92C248,649.4,268,651,268,651s-7.34-18.6-12-22.07a10.59,10.59,0,1,0-12.59,17Z" />
  <path
     id="path523"
     fill="#fc6681"
     transform="translate(-55.48 -53.98)"
     d="M284.68,501c0,5.84-10.59,22.8-10.59,22.8s-10.59-17-10.59-22.8a10.59,10.59,0,0,1,21.18,0Z" />
  <path
     id="path525"
     fill="#fc6681"
     transform="translate(-55.48 -53.98)"
     d="M302.18,533.36c-3.18,4.9-21.28,13.38-21.28,13.38s.32-20,3.5-24.89a10.59,10.59,0,1,1,17.78,11.51Z" />
  <path
     id="path527"
     fill="#fc6681"
     transform="translate(-55.48 -53.98)"
     d="M301.41,588.7c-5.22,2.63-25.13.81-25.13.81s10.38-17.08,15.6-19.72a10.59,10.59,0,1,1,9.53,18.91Z" />
  <path
     id="path529"
     fill="#fc6681"
     transform="translate(-55.48 -53.98)"
     d="M291.4,630.45c-4.7,3.47-24.63,5-24.63,5s7.34-18.59,12-22.07a10.59,10.59,0,1,1,12.59,17Z" />
  <path
     id="path531"
     fill="#fc6681"
     transform="translate(-55.48 -53.98)"
     d="M258.67,547.87c4.19,4.08,23.73,8.3,23.73,8.3s-4.79-19.41-9-23.48a10.58,10.58,0,1,0-14.75,15.18Z" />
  <path
     id="path533"
     fill="#fc6681"
     transform="translate(-55.48 -53.98)"
     d="M247.58,596.84c5.22,2.64,25.13.82,25.13.82s-10.38-17.09-15.6-19.72a10.58,10.58,0,1,0-9.53,18.9Z" />
  <path
     id="path535"
     fill="#fc6681"
     transform="translate(-55.48 -53.98)"
     d="M243.34,645.92C248,649.4,268,651,268,651s-7.34-18.6-12-22.07a10.59,10.59,0,1,0-12.59,17Z" />
  <path
     id="path537"
     fill="#a8a8a8"
     transform="translate(-55.48 -53.98)"
     d="M239.05,672.44s17.11-3.4,21.67-7.93,25.1-12.46,27.38-6.79,30.8,24.91,11.41,28.31-45.63,4.53-51.34,2.27S239.05,672.44,239.05,672.44Z" />
  <path
     id="path539"
     opacity="0.2"
     transform="translate(-55.48 -53.98)"
     d="M299.51,683.93c-19.4,3.39-45.63,4.53-51.34,2.26-4.34-1.72-7.36-10-8.55-13.87l-.57.12s3.42,13.59,9.12,15.86,31.94,1.13,51.34-2.27c5.59-1,7.19-3.28,6.59-6.2C305.62,681.73,303.67,683.2,299.51,683.93Z" />
  <path
     inkscape:connector-curvature="0"
     id="path541"
     opacity="0.1"
     fill="#dd042b"
     d="M 1099.4508,77.300278 V 271.07028 c 0,32.12 -39.65,47.57 -61.17,23.72 l -0.51,-0.56 c -6.94,-7.77 -16.44,-17.22 -26,-13.08 -3,1.27 -5.22,3.69 -7.86,5.53 a 114.57,114.57 0 0 1 4.93,13 c 8.25,27.32 1.82,56.84 -7,84 -8.81996,27.16 -20.07996,54.06 -21.58996,82.57 -0.72,13.69 0.85,27.39 2.41,41 3,25.86 6.07,52.22 16.88,75.9 5.91996,13 14.28996,26.06 12.51996,40.19 a 408.78,408.78 0 0 1 -137.76993,-17.5 c 30.86,-31.07 30.82,-80.37 28.76,-124.11 q -2.47,-52.84 -5,-105.7 c -0.48,-10.32 -1.06,-21 -5.77,-30.2 -6.39,-12.53 -19.71,-20.39 -33.43,-23.53 -13.72,-3.14 -28,-2.29 -42.07,-1.4 a 22.53,22.53 0 0 1 2.93,-15.95 200.58,200.58 0 0 0 69.29,16.25 c 3,0.15 6.37,0.12 8.6,-1.91 2.23,-2.03 2.57,-5.38 2.71,-8.4 a 183.89,183.89 0 0 0 -4.72,-52.06 c -0.77,0.19 -1.54,0.38 -2.31,0.62 -11.76,3.56 -22.41,12.35 -34.66,11.42 -17.12,-1.3 -27.27,-20.48 -43.4,-26.37 -12.36,-4.52 -25.95,-0.53 -38.9,1.82 -12.95,2.35 -28.3,2.19 -36.81,-7.85 -10.74,-12.68 -4,-32.79 -11,-47.89 -9.89,-21.5 -39.83,-21.9 -63.33,-19 a 74.5,74.5 0 0 1 39.69,-29.86 c -8.32,-14.93 -37.56,-14.26 -37.39,-31.35 0.06,-6.63 5.34,-11.900004 10.24,-16.370002 l 22,-20.06 -38.93,-14.7 c -8.72,-3.29 -18.46,-7.61 -21.37,-16.46 -2.84,-8.68 2.32,-18 8.74,-24.51 l 0.17,-0.16 a 54.56,54.56 0 0 1 38.7,-15.8100007 h 337.42993 a 75,75 0 0 1 74.99,75.0000007 z" />
  <polygon
     id="polygon627"
     fill="#fdc2cc"
     points="384.47 344.56 384.39 348.22 383.57 344.72 384.47 344.56" />
  <polygon
     id="polygon629"
     opacity="0.05"
     points="384.47 344.56 384.39 348.22 383.57 344.72 384.47 344.56" />
  <path
     id="path651"
     fill="url(#fe70a47d-0b65-4156-9878-337bc12fa6de)"
     transform="translate(-55.48 -53.98)"
     d="M705.2,609.9s-2-8-3.77-15.89c-.37-4.94-1.24-11.35-1.61-14v-.32a4.25,4.25,0,0,0-1.13-2.9c1-2.88,4.63-13.84,3.95-17-.78-3.64-3.58-12.52-6.9-15.45a8.89,8.89,0,0,0-4.37-3.45,11.52,11.52,0,0,0-9.72.78l-16.88,9.47c-6.77-1-12.26-1.77-12.26-1.77s-4.19-.5-9.43-1c-1.63-3.88-7-15.61-12.57-17.47-6-2-13,.71-14.53,1.34h0l-.08,0-.2.08h0c-11,5.09-9.72,26.64-9.3,31.35a78.17,78.17,0,0,1-6.62,7.37c-3.77,3.32-4.94,12-1.43,13.79,1.66.85,4,1.86,6.08,2.69-9.52,20.25-25.63,60.06-11.2,71.37,19.62,15.37,56.38,20.48,69,15.37a2,2,0,0,0,1-.07s20.45-4.87,25.23-10.32a35.37,35.37,0,0,0,7.15-15.4,29.92,29.92,0,0,0,9.6-16.79C707.72,619.1,705.2,609.9,705.2,609.9Zm-12.79-43.66.49-2.42.81.45c-.13.67-.27,1.36-.45,2.07L692.5,571Zm-3.85-20.14c.87.58,6.64,4.87,5.49,15.82a5.28,5.28,0,0,0-.32-1.24c-.25-1.57-1.38-3.7-5.28-5a85.26,85.26,0,0,0-10.2-2.27A33.79,33.79,0,0,1,688.56,546.1Zm-57.35,1.14c-4.42-.34-7.9-.48-8.38-.14h-.07a4,4,0,0,0-1.68.21,12.84,12.84,0,0,0-4.75,2.22c2-11.19,7.84-12.13,9.11-12.2A31,31,0,0,1,631.21,547.24ZM694.75,636c-.61-9.14-1.17-23.42-1.47-31.74l.51-.08a13.28,13.28,0,0,0,1.7-.34c.56,5.38,1.56,11.77,3.29,15.92C701,625.12,697.53,631.86,694.75,636Z" />
  <polygon
     id="polygon653"
     fill="#cd939c"
     points="635.52 507.28 624.12 503.74 611.83 508.17 610.95 515.89 617.02 519.82 626.65 519.5 635.14 515.51 636.59 508.17 635.52 507.28" />
  <polygon
     id="polygon655"
     opacity="0.2"
     points="635.52 507.28 624.12 503.74 611.83 508.17 610.95 515.89 617.02 519.82 626.65 519.5 635.14 515.51 636.59 508.17 635.52 507.28" />
  <path
     id="path657"
     fill="#f6c6cd"
     transform="translate(-55.48 -53.98)"
     d="M607.59,565.06s-3.11-26.7,9.22-32.1c0,0,6.59.33,9.46,5.06,0,0-9-.5-9.73,18.24Z" />
  <path
     id="path659"
     opacity="0.1"
     transform="translate(-55.48 -53.98)"
     d="M607.59,565.06s-3.11-26.7,9.22-32.1c0,0,6.59.33,9.46,5.06,0,0-9-.5-9.73,18.24Z" />
  <path
     id="path661"
     fill="#cd939c"
     transform="translate(-55.48 -53.98)"
     d="M614.24,555.5s-9.5,12.67-13.18,16-4.81,11.91-1.39,13.68,10,4.31,10,4.31Z" />
  <path
     id="path663"
     opacity="0.05"
     transform="translate(-55.48 -53.98)"
     d="M614.24,555.5s-9.5,12.67-13.18,16-4.81,11.91-1.39,13.68,10,4.31,10,4.31Z" />
  <path
     id="path665"
     fill="#f6c6cd"
     transform="translate(-55.48 -53.98)"
     d="M643.68,550.18s-6.2-16.34-12.72-18.55-14.42,1.45-14.42,1.45,9.6-1,15.49,15.83Z" />
  <path
     id="path667"
     fill="#f6c6cd"
     transform="translate(-55.48 -53.98)"
     d="M697.05,577.86s4.83-13.94,4.07-17.55-3.48-12.41-6.71-15.32-7.09,1.64-7.09,1.64,8.3,5,4.69,20.14l-1.08,6.72Z" />
  <path
     id="path669"
     opacity="0.1"
     transform="translate(-55.48 -53.98)"
     d="M697.05,577.86s4.83-13.94,4.07-17.55-3.48-12.41-6.71-15.32-7.09,1.64-7.09,1.64,8.3,5,4.69,20.14l-1.08,6.72Z" />
  <path
     id="path671"
     fill="#f6c6cd"
     transform="translate(-55.48 -53.98)"
     d="M661.8,553.16l18.9-10.81a11,11,0,0,1,9.46-.77,8.63,8.63,0,0,1,4.25,3.41s-9.12-.51-19.25,11.4Z" />
  <path
     id="path673"
     fill="#f6c6cd"
     transform="translate(-55.48 -53.98)"
     d="M693.48,594.26s.51,17.22,3.89,25.5-6.76,19.93-6.76,19.93l1.86,10s8.7-5.57,11.15-18.07,0-21.61,0-21.61-7-28.08-6-31.08S693.48,594.26,693.48,594.26Z" />
  <path
     id="path675"
     opacity="0.1"
     transform="translate(-55.48 -53.98)"
     d="M693.48,594.26s.51,17.22,3.89,25.5-6.76,19.93-6.76,19.93l1.86,10s8.7-5.57,11.15-18.07,0-21.61,0-21.61-7-28.08-6-31.08S693.48,594.26,693.48,594.26Z" />
  <path
     id="path677"
     fill="#cd939c"
     transform="translate(-55.48 -53.98)"
     d="M691.12,564s1.52,8.78-16.38,4.9l-12,104.8s19.89-4.83,24.54-10.23,8.1-15.71,7-19.42-2.49-46.27-2.49-46.27Z" />
  <path
     id="path679"
     fill="#cd939c"
     transform="translate(-55.48 -53.98)"
     d="M611.41,575.89s-35.81,67.43-16.72,82.67,54.84,20.31,67.11,15.24c0,0,5.68,1.52,4.83-16.21s6.59-67.22,6.59-67.22Z" />
  <path
     id="path681"
     fill="#f6c6cd"
     transform="translate(-55.48 -53.98)"
     d="M612.6,578.9S579,642.27,596.88,656.59s51.55,19.08,63.07,14.32c0,0,5.34,1.43,4.54-15.24s6.19-63.16,6.19-63.16Z" />
  <path
     id="path683"
     opacity="0.1"
     transform="translate(-55.48 -53.98)"
     d="M690.36,605c-1.38,1-9.25-1.4-9.25-1.4-8.51-.59-5.48-15.25-3.94-21.08.39-1.45.68-2.35.68-2.35,4,5.07,11.12,2.91,11.12,2.91s.21,1.63.49,4C690.19,593.24,691.35,604.31,690.36,605Z" />
  <path
     id="path685"
     fill="#f6c6cd"
     transform="translate(-55.48 -53.98)"
     d="M690.61,604.52c-1.37,1-9.24-1.39-9.24-1.39-8.52-.6-5.49-15.26-3.94-21.08.38-1.45.67-2.36.67-2.36,4,5.08,11.12,2.92,11.12,2.92s.21,1.63.5,4C690.44,592.73,691.6,603.8,690.61,604.52Z" />
  <path
     id="path687"
     opacity="0.05"
     transform="translate(-55.48 -53.98)"
     d="M690.61,604.88c-1.37,1-9.24-1.39-9.24-1.39-8.52-.6-5.49-15.25-3.94-21.08.38-1.45.67-2.35.67-2.35,4,5.07,11.12,2.91,11.12,2.91s.21,1.63.5,4C690.44,593.1,691.6,604.16,690.61,604.88Z" />
  <path
     id="path689"
     opacity="0.1"
     transform="translate(-55.48 -53.98)"
     d="M689.72,586.61c-3.88-.49-9.83-3.32-12.29-4.56.38-1.45.67-2.36.67-2.36,4,5.08,11.12,2.92,11.12,2.92S689.43,584.24,689.72,586.61Z" />
  <path
     id="path691"
     fill="#f6c6cd"
     transform="translate(-55.48 -53.98)"
     d="M685.93,582s-9.67,25.2,6.58,22.29c0,0,7.64-.8,7.6-6.59s-1.9-18.53-1.9-18.53Z" />
  <path
     id="path693"
     opacity="0.1"
     transform="translate(-55.48 -53.98)"
     d="M678.71,575.71s-4.92,20.41,10.83,12.84,5.67-12.84,5.67-12.84l-7.52-4.91Z" />
  <path
     id="path695"
     fill="#cd939c"
     transform="translate(-55.48 -53.98)"
     d="M678.71,575.46s-4.92,20.4,10.83,12.83,5.67-12.83,5.67-12.83l-7.52-4.91Z" />
  <path
     id="path697"
     opacity="0.1"
     transform="translate(-55.48 -53.98)"
     d="M681.72,572.61s-4.51,1.2-2.2,5.66a12.85,12.85,0,0,1,1.45,6.55,3,3,0,0,0,2.47,3.18c1.62.29,3.93-.11,6.85-2.66,0,0,5.82-2.17,5.37-5s-10-9.19-10-9.19Z" />
  <path
     id="path699"
     fill="#f6c6cd"
     transform="translate(-55.48 -53.98)"
     d="M681.72,572.35s-4.51,1.21-2.2,5.67a12.85,12.85,0,0,1,1.45,6.55,3,3,0,0,0,2.47,3.18c1.62.28,3.93-.12,6.85-2.66,0,0,5.82-2.18,5.37-5s-10-9.19-10-9.19Z" />
  <circle
     id="circle701"
     opacity="0.1"
     r="2.97"
     cy="525.63"
     cx="632.31" />
  <circle
     id="circle703"
     fill="#cd939c"
     r="2.97"
     cy="525.38"
     cx="632.31" />
  <path
     id="path705"
     opacity="0.1"
     transform="translate(-55.48 -53.98)"
     d="M651.49,550.84s-28.27-3.5-29.71-2.42c0,0-15,2.56-15,30.55,0,0-.31,16.08,30.62,23.82,0,0,24.82,2.18,32.92-7.66s4.08-26.39,4.08-26.39,3.23-12.65,18.23-3.9c0,0,1.57-5-5.2-7.4S651.49,550.84,651.49,550.84Z" />
  <path
     id="path707"
     fill="#cd939c"
     transform="translate(-55.48 -53.98)"
     d="M651.49,550.34s-28.27-3.5-29.71-2.43c0,0-15,2.56-15,30.55,0,0-.31,16.09,30.62,23.83,0,0,24.82,2.18,32.92-7.66s4.08-26.39,4.08-26.39,3.23-12.65,18.23-3.91c0,0,1.57-5-5.2-7.4S651.49,550.34,651.49,550.34Z" />
  <path
     id="path709"
     opacity="0.1"
     transform="translate(-55.48 -53.98)"
     d="M652.36,550.43s-27.48-3.29-28.88-2.28c0,0-14.56,2.41-14.56,28.76,0,0-.3,15.13,29.76,22.42,0,0,24.13,2,32-7.21s4-24.84,4-24.84,3.14-11.91,17.72-3.67c0,0,1.54-4.69-5-7S652.36,550.43,652.36,550.43Z" />
  <path
     id="path711"
     fill="#f6c6cd"
     transform="translate(-55.48 -53.98)"
     d="M652.36,550.18s-27.48-3.29-28.88-2.28c0,0-14.56,2.41-14.56,28.75,0,0-.3,15.14,29.76,22.42,0,0,24.13,2,32-7.21s4-24.83,4-24.83,3.14-11.91,17.72-3.68c0,0,1.54-4.68-5-7S652.36,550.18,652.36,550.18Z" />
  <path
     id="path713"
     fill="#cd939c"
     transform="translate(-55.48 -53.98)"
     d="M638.55,593.49s-7.47-3.41-7.85,3c0,0-2.53,6.46-2.66,7.22s.38,7.34,6.21,7.09A9,9,0,0,0,642.1,606s1.27-7.08,3-8.6-1.27-3-2.41-3A24.47,24.47,0,0,1,638.55,593.49Z" />
  <path
     id="path715"
     opacity="0.1"
     transform="translate(-55.48 -53.98)"
     d="M637.54,592.48s-7.47-3.41-7.85,3c0,0-2.53,6.46-2.66,7.22s.38,7.34,6.21,7.09a9,9,0,0,0,7.85-4.82s1.26-7.09,3-8.61-1.27-3-2.41-3A24.71,24.71,0,0,1,637.54,592.48Z" />
  <path
     id="path717"
     fill="#f6c6cd"
     transform="translate(-55.48 -53.98)"
     d="M637.79,592.23s-7.47-3.42-7.85,3c0,0-2.53,6.46-2.66,7.22s.38,7.35,6.21,7.1a9,9,0,0,0,7.85-4.83s1.27-7.08,3-8.6-1.27-3-2.41-3A24.71,24.71,0,0,1,637.79,592.23Z" />
  <circle
     id="circle719"
     opacity="0.1"
     r="2.71"
     cy="550.81"
     cx="578.58" />
  <circle
     id="circle721"
     fill="#cd939c"
     r="2.71"
     cy="550.56"
     cx="578.58" />
  <path
     id="path723"
     fill="#cd939c"
     transform="translate(-55.48 -53.98)"
     d="M659.39,619.34s-29.45-3.43-50-14c0,0-16.21,40.86-3.29,46.58s39.77,14.87,47.3,11.71c0,0,4.5.74,3-14.13S659.39,619.34,659.39,619.34Z" />
  <path
     id="path725"
     opacity="0.1"
     transform="translate(-55.48 -53.98)"
     d="M657.62,622.25s-29.45-3.23-50-13.17c0,0-16.22,38.44-3.3,43.82s39.77,14,47.31,11c0,0,4.5.7,3-13.3S657.62,622.25,657.62,622.25Z" />
  <path
     id="path727"
     fill="#f6c6cd"
     transform="translate(-55.48 -53.98)"
     d="M658.12,622s-29.44-3.23-50-13.17c0,0-16.21,38.44-3.29,43.82s39.77,14,47.31,11c0,0,4.49.7,3-13.3S658.12,622,658.12,622Z" />
  <g
     id="g733"
     opacity="0.1">
    <path
       id="path729"
       transform="translate(-55.48 -53.98)"
       d="M687.32,556.18c-6.59-2.28-35-6.2-35-6.2s-27.48-3.3-28.88-2.28c0,0-7.1,1.17-11.38,10.85,4.31-8.69,10.88-9.78,10.88-9.78,1.39-1,28.88,2.28,28.88,2.28s28.37,3.93,35,6.21c4.42,1.53,5.18,4.14,5.2,5.7l.35.19S693.91,558.46,687.32,556.18Z" />
    <path
       id="path731"
       transform="translate(-55.48 -53.98)"
       d="M674.9,566.11a8.67,8.67,0,0,0-.75,1.79S676.94,579,673,588.08c4.63-9.2,1.61-21.26,1.61-21.26S674.73,566.55,674.9,566.11Z" />
  </g>
</svg>
