<?xml version="1.0" encoding="UTF-8" standalone="no"?>
<!-- Generator: Adobe Illustrator 16.0.0, SVG Export Plug-In . SVG Version: 6.00 Build 0)  -->

<svg
   xmlns:dc="http://purl.org/dc/elements/1.1/"
   xmlns:cc="http://creativecommons.org/ns#"
   xmlns:rdf="http://www.w3.org/1999/02/22-rdf-syntax-ns#"
   xmlns:svg="http://www.w3.org/2000/svg"
   xmlns="http://www.w3.org/2000/svg"
   xmlns:sodipodi="http://sodipodi.sourceforge.net/DTD/sodipodi-0.dtd"
   xmlns:inkscape="http://www.inkscape.org/namespaces/inkscape"
   version="1.1"
   id="Capa_1"
   x="0px"
   y="0px"
   width="549.98187"
   height="514.33447"
   viewBox="0 0 549.9819 514.3345"
   xml:space="preserve"
   sodipodi:docname="VIRUS.svg"
   inkscape:version="0.92.4 (5da689c313, 2019-01-14)"><metadata
   id="metadata895"><rdf:RDF><cc:Work
       rdf:about=""><dc:format>image/svg+xml</dc:format><dc:type
         rdf:resource="http://purl.org/dc/dcmitype/StillImage" /><dc:title></dc:title></cc:Work></rdf:RDF></metadata><defs
   id="defs893" /><sodipodi:namedview
   pagecolor="#ffffff"
   bordercolor="#666666"
   borderopacity="1"
   objecttolerance="10"
   gridtolerance="10"
   guidetolerance="10"
   inkscape:pageopacity="0"
   inkscape:pageshadow="2"
   inkscape:window-width="2304"
   inkscape:window-height="1202"
   id="namedview891"
   showgrid="false"
   fit-margin-top="0"
   fit-margin-left="0"
   fit-margin-right="0"
   fit-margin-bottom="0"
   inkscape:zoom="1.7800551"
   inkscape:cx="274.99057"
   inkscape:cy="302.11094"
   inkscape:window-x="-11"
   inkscape:window-y="1634"
   inkscape:window-maximized="1"
   inkscape:current-layer="g858" />
<g
   id="g858"
   transform="translate(-9.1081568e-4,-17.825525)">
	<path
   d="m 463.497,210.158 c -5.5,-3.2 -11.3,-6.1 -17.3,-8.7 0.8,-6.9 1.3,-13.8 1.3,-20.7 0,-72.4 -45.8,-137.7 -113.899,-162.3 -5.4,-1.9 -11.4,0.6 -13.7,5.9 -2.3,5.3 -0.1,11.4 5,14 37,18.9 60,56.5 60,98 0,13.5 -2.5,26.8 -7.3,39.3 -28,-23.5 -64.101,-37.6 -103.401,-37.6 -38.8,0 -74.5,13.8 -102.4,36.8 -4.6,-12.3 -7,-25.3 -7,-38.4 0,-41.5 23,-79.1 60,-98 5.1,-2.6 7.3,-8.7 5,-14 -2.3,-5.3 -8.3,-7.8 -13.7,-5.9 -68.1,24.6 -113.9,89.8 -113.9,162.3 0,6.8 0.4,13.7 1.2,20.6 -6,2.6 -11.8,5.5 -17.4,8.8 -62.5,36.1 -96.1,108.3 -83.3,179.701 0.9,5.299 5.5,9 10.9,9 6,-0.1 10.8,-4.9 10.8,-10.9 0,-0.6 0,-1.1 -0.1,-1.6 -1.7,-41.1 19.3,-79.4 54.9,-100 11.2,-6.5 23.4,-10.8 36.1,-13 -1.4,8.401 -2.1,17.1 -2.1,25.901 0,69.699 44.5,129.199 106.5,151.699 -8.4,10.4 -18.7,19.301 -30.4,26.1 -16.7,9.6 -35.7,14.701 -54.9,14.701 -21.4,0 -42.1,-6.102 -60,-17.701 -4.8,-3.1 -11.2,-2 -14.6,2.6 -3.4,4.602 -2.7,11.102 1.7,14.801 31.1,26.199 70.6,40.6 111.4,40.6 30.1,0 59.9,-8 86.1,-23.1 5.5,-3.199 10.9,-6.699 16.1,-10.5 5.201,3.801 10.6,7.4 16.1,10.5 26.2,15.1 56,23.1 86.101,23.1 40.8,0 80.3,-14.4 111.399,-40.6 4.4,-3.699 5.101,-10.199 1.7,-14.801 -3.4,-4.6 -9.8,-5.799 -14.6,-2.6 -17.9,11.6 -38.7,17.701 -60,17.701 -19.2,0 -38.101,-5.102 -54.9,-14.701 -11.8,-6.799 -22.2,-15.799 -30.7,-26.4 61.601,-22.699 105.601,-82 105.601,-151.299 0,-8.9 -0.801,-17.6 -2.101,-26.101 13.101,2.1 25.7,6.601 37.3,13.2 36,20.801 57,59.5 54.9,101 -0.3,5.699 3.9,10.699 9.6,11.4 5.7,0.699 10.9,-3.201 11.9,-8.9 12.5,-71.401 -21.1,-143.701 -83.9,-179.901 z m -117.3,10.1 c -14.7,12.5 -32.6,21.1 -52,24.5 -12.899,2.3 -25.8,2.3 -38.7,0 -19.7,-3.5 -37.7,-12.2 -52.5,-25 18.9,-17 43.9,-27.3 71.3,-27.3 27.7,-0.1 53,10.5 71.9,27.8 z m -178.801,79.101 c 0,-7.4 0.8,-14.701 2.2,-21.701 18.4,6.301 35.1,17.4 48,32.4 4.5,5.301 8.5,10.9 11.8,16.699 3.1,5.4 5.8,11.102 8,17.102 6.9,18.699 8.4,38.5 5,57.5 -43.5,-13.602 -75,-54.102 -75,-102 z m 140.001,101.599 c -3.4,-19 -1.8,-38.6 5,-57.1 2.2,-6 4.9,-11.801 8,-17.102 3.4,-5.799 7.3,-11.398 11.8,-16.699 12.7,-14.801 28.9,-25.699 46.9,-32 1.399,6.9 2.1,14 2.1,21.301 0,47.501 -31,87.7 -73.8,101.6 z"
   id="path856"
   style="fill:#64dd17;fill-opacity:1"
   inkscape:connector-curvature="0" />
</g>
<g
   id="g860"
   transform="translate(-9.1081568e-4,-17.825525)">
</g>
<g
   id="g862"
   transform="translate(-9.1081568e-4,-17.825525)">
</g>
<g
   id="g864"
   transform="translate(-9.1081568e-4,-17.825525)">
</g>
<g
   id="g866"
   transform="translate(-9.1081568e-4,-17.825525)">
</g>
<g
   id="g868"
   transform="translate(-9.1081568e-4,-17.825525)">
</g>
<g
   id="g870"
   transform="translate(-9.1081568e-4,-17.825525)">
</g>
<g
   id="g872"
   transform="translate(-9.1081568e-4,-17.825525)">
</g>
<g
   id="g874"
   transform="translate(-9.1081568e-4,-17.825525)">
</g>
<g
   id="g876"
   transform="translate(-9.1081568e-4,-17.825525)">
</g>
<g
   id="g878"
   transform="translate(-9.1081568e-4,-17.825525)">
</g>
<g
   id="g880"
   transform="translate(-9.1081568e-4,-17.825525)">
</g>
<g
   id="g882"
   transform="translate(-9.1081568e-4,-17.825525)">
</g>
<g
   id="g884"
   transform="translate(-9.1081568e-4,-17.825525)">
</g>
<g
   id="g886"
   transform="translate(-9.1081568e-4,-17.825525)">
</g>
<g
   id="g888"
   transform="translate(-9.1081568e-4,-17.825525)">
</g>
</svg>